# xmcd
#
# Track frame offsets:
#	150
#	38250
#	84012
#	95771
#	130338
#	171439
#	206439
#	240781
#	285906
#	314584
#	338297
#
# Disc length: 4781 seconds
#
# Revision: 1
# Processed by: cddbd v1.5.2PL0 Copyright (c) Steve Scherf et al.
# Submitted via: audiograbber 1.83.01
#
DISCID=7f12ab0b
DTITLE=Grateful Dead - 79-11-01 Nassau Veterans Memorial Coliseum, Uniondale NY
DYEAR=1900
DGENRE=
TTITLE0=Jack Straw
TTITLE1=They Love Each Other
TTITLE2=Mama Tried
TTITLE3=Mexicali Blues
TTITLE4=Peggy-O
TTITLE5=New Minglewood Blues
TTITLE6=Candyman
TTITLE7=Looks Like Rain
TTITLE8=Don't Ease Me In
TTITLE9=Easy To Love You
TTITLE10=Promised Land
EXTD=
EXTT0=
EXTT1=
EXTT2=
EXTT3=
EXTT4=
EXTT5=
EXTT6=
EXTT7=
EXTT8=
EXTT9=
EXTT10=
PLAYORDER=
